<?xml version="1.0" standalone="no"?>
<!DOCTYPE svg PUBLIC "-//W3C//DTD SVG 20010904//EN"
 "http://www.w3.org/TR/2001/REC-SVG-20010904/DTD/svg10.dtd">
<svg version="1.0" xmlns="http://www.w3.org/2000/svg"
 width="200.000000pt" height="200.000000pt" viewBox="0 0 200.000000 200.000000"
 preserveAspectRatio="xMidYMid meet">
<metadata>
Created by potrace 1.11, written by Peter Selinger 2001-2013
</metadata>
<g transform="translate(0.000000,200.000000) scale(0.100000,-0.100000)"
fill="#000000" stroke="none">
<path d="M940 1851 c-74 -24 -149 -86 -207 -171 -62 -91 -193 -379 -193 -424
0 -25 20 -57 67 -107 l35 -36 -94 -65 c-51 -35 -101 -78 -111 -96 -10 -17 -44
-95 -75 -174 -46 -119 -56 -154 -56 -205 0 -55 4 -67 40 -120 21 -32 40 -61
42 -64 1 -3 -43 -6 -98 -6 -104 0 -125 -7 -118 -39 3 -17 16 -19 143 -22 163
-3 175 -8 175 -81 0 -25 4 -52 9 -59 7 -11 100 -14 496 -14 299 0 491 4 497
10 5 5 11 31 13 57 6 79 18 85 161 85 135 0 154 4 154 30 0 30 -21 36 -122 34
l-97 -1 28 36 c85 108 85 159 3 366 -32 83 -65 161 -73 173 -8 12 -56 52 -107
88 l-93 65 45 52 c61 71 63 88 27 180 -113 283 -214 433 -331 489 -49 23 -121
32 -160 19z m137 -78 c60 -28 122 -96 178 -198 26 -46 18 -40 -101 78 -120
117 -154 144 -154 117 0 -6 72 -83 160 -172 146 -145 200 -211 187 -225 -3 -3
-78 68 -166 157 -89 89 -166 158 -171 155 -6 -4 -10 -11 -8 -16 2 -5 63 -69
136 -142 111 -112 128 -134 105 -130 -18 4 -62 39 -129 104 -87 87 -114 105
-114 79 0 -4 34 -41 75 -83 41 -41 75 -78 75 -81 0 -17 -44 5 -84 42 -25 23
-50 42 -56 42 -14 0 -13 -27 3 -37 6 -4 18 -15 25 -24 11 -15 4 -17 -74 -18
-89 -2 -231 -23 -279 -41 -15 -6 -30 -8 -33 -6 -7 8 93 210 137 274 89 132
185 173 288 125z m136 -452 c12 -1 1 -52 -29 -136 -27 -76 -56 -104 -132 -130
-48 -17 -92 -11 -155 22 -40 20 -52 33 -71 76 -34 77 -53 157 -39 165 9 6 391
8 426 3z m247 -426 c6 -8 10 -18 7 -22 -3 -4 -8 -123 -12 -263 -4 -140 -8
-261 -8 -267 0 -7 -10 -13 -21 -14 -56 -3 -869 0 -871 3 -2 2 -7 100 -10 218
-4 118 -8 242 -10 275 -1 33 0 66 3 73 3 9 104 12 457 12 384 0 454 -2 465
-15z m-22 -638 c7 -5 10 -13 7 -18 -4 -5 -185 -9 -445 -9 -366 0 -439 2 -443
14 -3 8 -4 16 -2 18 7 7 871 2 883 -5z"/>
<path d="M1003 1252 c2 -28 9 -47 19 -53 27 -15 28 3 3 51 l-24 45 2 -43z"/>
<path d="M936 810 c-35 -11 -82 -54 -103 -94 -19 -37 -19 -106 1 -148 9 -19
15 -45 12 -59 -5 -32 10 -49 44 -49 16 0 28 -5 27 -12 -1 -47 0 -48 77 -47 73
1 75 1 78 27 2 21 9 28 31 30 31 4 55 38 38 55 -7 7 -4 22 10 48 21 42 25 103
8 146 -31 82 -135 130 -223 103z m2 -185 c15 -2 30 -4 34 -4 11 -1 -3 -34 -20
-48 -35 -28 -82 -3 -82 43 0 21 4 24 20 19 11 -4 32 -8 48 -10z m180 -11 c2
-11 -6 -28 -17 -38 -26 -23 -69 -14 -80 17 -8 20 -4 23 33 33 51 15 60 13 64
-12z m-134 -107 c-3 -9 -10 -17 -15 -17 -11 0 -12 34 -2 44 11 11 24 -9 17
-27z m49 14 c5 -22 -1 -33 -14 -25 -12 7 -12 44 0 44 5 0 11 -9 14 -19z"/>
</g>
</svg>
